<svg width="239" height="70" viewBox="0 0 239 70" fill="none" xmlns="http://www.w3.org/2000/svg">
<path d="M3.33887 9.07373L8.75977 22.6577L14.2568 9.07373H17.4941L8.69629 30.1479L0.101562 9.07373H3.33887ZM30.7607 11.854H22.9023V16.564H30.5322V19.3442H22.9023V25.895H30.7607V28.6753H19.9443V9.07373H30.7607V11.854ZM41.2852 20.3218L47.3535 28.6753H43.7354L38.1367 20.6519H37.6035V28.6753H34.6455V9.07373H38.1113C40.7012 9.07373 42.5716 9.56038 43.7227 10.5337C44.9922 11.617 45.627 13.0474 45.627 14.8247C45.627 16.2127 45.2292 17.4061 44.4336 18.4048C43.638 19.4035 42.5885 20.0425 41.2852 20.3218ZM37.6035 18.0747H38.543C41.3444 18.0747 42.7451 17.0041 42.7451 14.8628C42.7451 12.8569 41.3825 11.854 38.6572 11.854H37.6035V18.0747ZM48.877 18.7856C48.877 16.0265 49.8883 13.6567 51.9111 11.6763C53.9255 9.6958 56.346 8.70557 59.1729 8.70557C61.9658 8.70557 64.361 9.70426 66.3584 11.7017C68.3643 13.6991 69.3672 16.0985 69.3672 18.8999C69.3672 21.7183 68.36 24.1092 66.3457 26.0728C64.3229 28.0448 61.8812 29.0308 59.0205 29.0308C56.4899 29.0308 54.2174 28.1548 52.2031 26.4028C49.9857 24.4647 48.877 21.9256 48.877 18.7856ZM51.8604 18.8237C51.8604 20.9904 52.5882 22.772 54.0439 24.1685C55.4912 25.5649 57.1628 26.2632 59.0586 26.2632C61.1152 26.2632 62.8503 25.5522 64.2637 24.1304C65.6771 22.6916 66.3838 20.9396 66.3838 18.8745C66.3838 16.784 65.6855 15.0321 64.2891 13.6187C62.901 12.1968 61.1829 11.4858 59.1348 11.4858C57.0951 11.4858 55.3727 12.1968 53.9678 13.6187C52.5628 15.0236 51.8604 16.7586 51.8604 18.8237ZM73.0869 28.6753V7.74072L87.3818 22.6958V9.07373H90.3398V29.8687L76.0449 14.9517V28.6753H73.0869ZM98.0078 9.07373V28.6753H95.0498V9.07373H98.0078ZM105.676 16.894L113.306 9.07373H117.254L108.393 17.9478L117.305 28.6753H113.344L106.285 19.9536L105.676 20.563V28.6753H102.718V9.07373H105.676V16.894ZM131.473 23.9146H123.081L120.897 28.6753H117.711L127.41 7.84229L136.767 28.6753H133.529L131.473 23.9146ZM130.267 21.1343L127.359 14.4692L124.312 21.1343H130.267ZM150.211 16.894L157.841 9.07373H161.789L152.928 17.9478L161.84 28.6753H157.879L150.82 19.9536L150.211 20.563V28.6753H147.253V9.07373H150.211V16.894ZM167.451 9.07373V28.6753H164.493V9.07373H167.451ZM171.476 28.6753L175.602 7.60107L182.33 22.8354L189.3 7.60107L193.007 28.6753H189.973L188.081 16.8433L182.279 29.5767L176.643 16.8306L174.535 28.6753H171.476Z" fill="#123435"/>
<path d="M64.7969 48.4602H66.7734V59.4709C66.7734 60.6454 66.5479 61.5872 66.0967 62.2961C65.6455 63.0051 65.0511 63.5208 64.3135 63.843C63.583 64.1581 62.7952 64.3157 61.9502 64.3157C61.0479 64.3157 60.235 64.1581 59.5117 63.843C58.7884 63.5208 58.2119 63.0051 57.7822 62.2961C57.3597 61.5872 57.1484 60.6454 57.1484 59.4709V48.4602H59.1143V59.4709C59.1143 60.2874 59.2288 60.9247 59.458 61.3831C59.6943 61.8414 60.0238 62.1637 60.4463 62.3499C60.876 62.5361 61.3773 62.6292 61.9502 62.6292C62.5303 62.6292 63.0316 62.5361 63.4541 62.3499C63.8838 62.1637 64.2132 61.8414 64.4424 61.3831C64.6787 60.9247 64.7969 60.2874 64.7969 59.4709V48.4602ZM70.5714 48.4602L73.5363 54.4543L76.4796 48.4602H78.7785L74.7072 56.2053L78.8644 64.1008H76.5441L73.5363 57.9885L70.5177 64.1008H68.1867L72.3546 56.2053L68.2726 48.4602H70.5714ZM86.347 48.4602L80.8685 65.4436H79.2679L84.7571 48.4602H86.347ZM95.4731 48.4602H97.4497V59.4709C97.4497 60.6454 97.2241 61.5872 96.7729 62.2961C96.3218 63.0051 95.7274 63.5208 94.9897 63.843C94.2593 64.1581 93.4715 64.3157 92.6264 64.3157C91.7241 64.3157 90.9113 64.1581 90.188 63.843C89.4647 63.5208 88.8882 63.0051 88.4585 62.2961C88.036 61.5872 87.8247 60.6454 87.8247 59.4709V48.4602H89.7905V59.4709C89.7905 60.2874 89.9051 60.9247 90.1343 61.3831C90.3706 61.8414 90.7 62.1637 91.1225 62.3499C91.5522 62.5361 92.0535 62.6292 92.6264 62.6292C93.2065 62.6292 93.7078 62.5361 94.1304 62.3499C94.56 62.1637 94.8895 61.8414 95.1186 61.3831C95.355 60.9247 95.4731 60.2874 95.4731 59.4709V48.4602ZM101.871 48.4602V64.1008H99.8942V48.4602H101.871ZM112.582 64.1008H109.918L109.939 62.4143H112.582C113.52 62.4143 114.283 62.2353 114.87 61.8772C115.457 61.512 115.891 60.9749 116.17 60.2659C116.449 59.5497 116.589 58.6653 116.589 57.6125V54.9377C116.589 54.107 116.51 53.3909 116.353 52.7893C116.195 52.1877 115.959 51.6936 115.644 51.3069C115.328 50.9202 114.931 50.6337 114.451 50.4475C113.971 50.2542 113.409 50.1575 112.765 50.1575H109.864V48.4602H112.765C113.645 48.4602 114.44 48.5999 115.149 48.8792C115.858 49.1513 116.467 49.5631 116.976 50.1145C117.484 50.6588 117.871 51.3355 118.136 52.1448C118.408 52.954 118.544 53.8922 118.544 54.9592V57.6125C118.544 58.6796 118.408 59.6178 118.136 60.427C117.871 61.2362 117.48 61.913 116.965 62.4573C116.449 63.0015 115.823 63.4133 115.085 63.6926C114.354 63.9648 113.52 64.1008 112.582 64.1008ZM111.014 48.4602V64.1008H109.037V48.4602H111.014ZM124.845 64.3157C124.15 64.3157 123.524 64.2118 122.965 64.0042C122.406 63.7965 121.93 63.4814 121.536 63.0588C121.142 62.6292 120.842 62.0885 120.634 61.4368C120.426 60.7851 120.322 60.0152 120.322 59.1272V57.8167C120.322 56.7926 120.441 55.926 120.677 55.217C120.92 54.5081 121.246 53.9387 121.654 53.509C122.063 53.0722 122.525 52.7571 123.04 52.5637C123.556 52.3632 124.086 52.2629 124.63 52.2629C125.36 52.2629 125.984 52.3811 126.499 52.6174C127.015 52.8538 127.434 53.2047 127.756 53.6702C128.078 54.1357 128.315 54.7086 128.465 55.3889C128.623 56.0693 128.701 56.8534 128.701 57.7415V58.8479H121.44V57.2258H126.8V56.9573C126.771 56.3557 126.689 55.8258 126.553 55.3674C126.424 54.9091 126.209 54.551 125.908 54.2932C125.608 54.0282 125.181 53.8958 124.63 53.8958C124.279 53.8958 123.953 53.9566 123.652 54.0784C123.359 54.193 123.105 54.3971 122.89 54.6907C122.682 54.9771 122.517 55.3746 122.396 55.8831C122.281 56.3915 122.224 57.0361 122.224 57.8167V59.1272C122.224 59.7502 122.281 60.2874 122.396 60.7385C122.517 61.1825 122.693 61.5514 122.922 61.845C123.158 62.1314 123.445 62.3463 123.781 62.4895C124.125 62.6256 124.515 62.6936 124.952 62.6936C125.59 62.6936 126.116 62.5719 126.531 62.3284C126.947 62.0777 127.308 61.759 127.616 61.3723L128.615 62.5647C128.408 62.8583 128.136 63.1412 127.799 63.4133C127.47 63.6783 127.061 63.8967 126.574 64.0686C126.095 64.2333 125.518 64.3157 124.845 64.3157ZM135.98 61.1252C135.98 60.8316 135.908 60.5738 135.765 60.3518C135.622 60.1298 135.385 59.915 135.056 59.7073C134.734 59.4996 134.297 59.2776 133.745 59.0413C133.208 58.8193 132.725 58.6008 132.295 58.386C131.873 58.164 131.515 57.9241 131.221 57.6663C130.927 57.4084 130.702 57.1112 130.544 56.7747C130.394 56.4309 130.319 56.0263 130.319 55.5608C130.319 55.0953 130.405 54.6656 130.576 54.2717C130.755 53.8707 131.006 53.5198 131.328 53.219C131.651 52.9182 132.037 52.6855 132.489 52.5208C132.94 52.3489 133.445 52.2629 134.003 52.2629C134.798 52.2629 135.475 52.4169 136.033 52.7249C136.592 53.0328 137.018 53.4553 137.312 53.9924C137.613 54.5224 137.763 55.1204 137.763 55.7864H135.872C135.872 55.4641 135.801 55.1597 135.658 54.8733C135.514 54.5868 135.303 54.3541 135.024 54.175C134.744 53.9889 134.404 53.8958 134.003 53.8958C133.581 53.8958 133.237 53.9709 132.972 54.1213C132.707 54.2717 132.514 54.4687 132.392 54.7122C132.277 54.9485 132.22 55.2099 132.22 55.4963C132.22 55.7112 132.249 55.8974 132.306 56.0549C132.37 56.2053 132.478 56.3486 132.628 56.4846C132.779 56.6135 132.983 56.7496 133.241 56.8928C133.505 57.0289 133.842 57.1864 134.25 57.3655C135.038 57.6734 135.7 57.9849 136.238 58.3C136.775 58.6152 137.183 58.984 137.462 59.4065C137.741 59.829 137.881 60.3518 137.881 60.9749C137.881 61.4833 137.788 61.9452 137.602 62.3606C137.423 62.7688 137.165 63.1197 136.828 63.4133C136.492 63.7069 136.087 63.9325 135.615 64.0901C135.149 64.2405 134.626 64.3157 134.046 64.3157C133.172 64.3157 132.431 64.1438 131.823 63.8C131.221 63.4491 130.763 62.9944 130.448 62.4358C130.14 61.87 129.986 61.2649 129.986 60.6204H131.887C131.908 61.1646 132.03 61.5872 132.252 61.8879C132.481 62.1887 132.757 62.3964 133.079 62.511C133.402 62.6256 133.724 62.6829 134.046 62.6829C134.469 62.6829 134.823 62.622 135.11 62.5002C135.396 62.3713 135.611 62.1887 135.754 61.9524C135.905 61.7161 135.98 61.4403 135.98 61.1252ZM141.754 52.4778V64.1008H139.864V52.4778H141.754ZM139.756 49.3948C139.756 49.0725 139.846 48.8004 140.025 48.5784C140.204 48.3564 140.472 48.2454 140.831 48.2454C141.189 48.2454 141.457 48.3564 141.636 48.5784C141.822 48.8004 141.915 49.0725 141.915 49.3948C141.915 49.7027 141.822 49.9677 141.636 50.1897C141.457 50.4045 141.189 50.512 140.831 50.512C140.472 50.512 140.204 50.4045 140.025 50.1897C139.846 49.9677 139.756 49.7027 139.756 49.3948ZM150.397 52.4778H152.105V64.1975C152.105 65.2216 151.926 66.0667 151.568 66.7327C151.217 67.3987 150.726 67.8892 150.096 68.2043C149.466 68.5266 148.739 68.6877 147.916 68.6877C147.622 68.6877 147.253 68.634 146.809 68.5266C146.365 68.4192 145.921 68.2545 145.477 68.0325C145.033 67.8176 144.668 67.5455 144.381 67.2161L145.166 65.8948C145.574 66.3101 146.007 66.6073 146.465 66.7864C146.924 66.9654 147.361 67.0549 147.776 67.0549C148.27 67.0549 148.7 66.9654 149.065 66.7864C149.43 66.6073 149.713 66.3137 149.914 65.9055C150.114 65.5045 150.214 64.9674 150.214 64.2942V55.0344L150.397 52.4778ZM143.715 58.8479V57.7629C143.715 56.8033 143.805 55.9797 143.984 55.2922C144.163 54.5976 144.421 54.0282 144.757 53.5842C145.101 53.1331 145.513 52.8 145.993 52.5852C146.473 52.3704 147.01 52.2629 147.604 52.2629C148.206 52.2629 148.725 52.3847 149.162 52.6282C149.599 52.8717 149.96 53.2262 150.247 53.6917C150.54 54.15 150.769 54.7086 150.934 55.3674C151.106 56.0191 151.224 56.7568 151.289 57.5803V59.0305C151.224 59.8469 151.106 60.581 150.934 61.2327C150.769 61.8844 150.537 62.4394 150.236 62.8977C149.942 63.356 149.577 63.7069 149.14 63.9504C148.703 64.1939 148.184 64.3157 147.583 64.3157C146.995 64.3157 146.465 64.2047 145.993 63.9827C145.52 63.7535 145.112 63.4133 144.768 62.9622C144.432 62.5038 144.17 61.9345 143.984 61.2542C143.805 60.5667 143.715 59.7646 143.715 58.8479ZM145.617 57.7629V58.8479C145.617 59.4924 145.663 60.0546 145.756 60.5344C145.85 61.0071 145.993 61.401 146.186 61.7161C146.387 62.024 146.641 62.2532 146.949 62.4036C147.264 62.554 147.64 62.6292 148.077 62.6292C148.607 62.6292 149.04 62.5002 149.377 62.2424C149.713 61.9846 149.982 61.6444 150.182 61.2219C150.39 60.7922 150.555 60.3303 150.676 59.8362V56.7854C150.605 56.4202 150.501 56.0693 150.365 55.7327C150.236 55.3889 150.068 55.0846 149.86 54.8196C149.652 54.5474 149.402 54.3326 149.108 54.175C148.822 54.0175 148.485 53.9387 148.098 53.9387C147.661 53.9387 147.285 54.0175 146.97 54.175C146.655 54.3326 146.397 54.5689 146.197 54.884C145.996 55.1991 145.85 55.5966 145.756 56.0764C145.663 56.5562 145.617 57.1184 145.617 57.7629ZM156.193 54.9592V64.1008H154.292V52.4778H156.086L156.193 54.9592ZM155.731 57.8489L154.958 57.8167C154.951 57.0217 155.04 56.2877 155.226 55.6145C155.42 54.9342 155.692 54.3433 156.043 53.842C156.401 53.3407 156.827 52.954 157.321 52.6819C157.815 52.4026 158.363 52.2629 158.965 52.2629C159.437 52.2629 159.867 52.3417 160.254 52.4993C160.64 52.6497 160.97 52.8931 161.242 53.2297C161.514 53.5663 161.722 54.0032 161.865 54.5403C162.015 55.0702 162.091 55.7183 162.091 56.4846V64.1008H160.189V56.4631C160.189 55.8544 160.121 55.3674 159.985 55.0022C159.856 54.6298 159.656 54.3612 159.384 54.1965C159.119 54.0247 158.782 53.9387 158.374 53.9387C158.001 53.9387 157.654 54.0426 157.332 54.2502C157.01 54.4579 156.727 54.7444 156.483 55.1096C156.247 55.4749 156.061 55.8938 155.925 56.3665C155.796 56.8319 155.731 57.3261 155.731 57.8489ZM173.919 57.967H170.503V56.2805H173.919C174.564 56.2805 175.083 56.1516 175.477 55.8938C175.878 55.636 176.168 55.2779 176.347 54.8196C176.533 54.3612 176.626 53.8385 176.626 53.2512C176.626 52.7141 176.533 52.2092 176.347 51.7366C176.168 51.2639 175.878 50.8844 175.477 50.5979C175.083 50.3043 174.564 50.1575 173.919 50.1575H170.911V64.1008H168.935V48.4602H173.919C174.929 48.4602 175.781 48.6643 176.476 49.0725C177.17 49.4807 177.697 50.0465 178.055 50.7698C178.42 51.4859 178.603 52.3059 178.603 53.2297C178.603 54.2323 178.42 55.0881 178.055 55.7971C177.697 56.5061 177.17 57.0468 176.476 57.4192C175.781 57.7844 174.929 57.967 173.919 57.967ZM179.672 58.8479V57.7415C179.672 56.8391 179.787 56.0478 180.016 55.3674C180.245 54.6799 180.564 54.107 180.972 53.6487C181.38 53.1903 181.856 52.8466 182.401 52.6174C182.945 52.3811 183.529 52.2629 184.152 52.2629C184.789 52.2629 185.38 52.3811 185.924 52.6174C186.468 52.8466 186.945 53.1903 187.353 53.6487C187.768 54.107 188.09 54.6799 188.32 55.3674C188.549 56.0478 188.663 56.8391 188.663 57.7415V58.8479C188.663 59.7502 188.549 60.5452 188.32 61.2327C188.09 61.913 187.772 62.4823 187.364 62.9407C186.955 63.399 186.479 63.7428 185.935 63.9719C185.391 64.2011 184.803 64.3157 184.173 64.3157C183.543 64.3157 182.956 64.2011 182.411 63.9719C181.867 63.7428 181.387 63.399 180.972 62.9407C180.564 62.4823 180.245 61.913 180.016 61.2327C179.787 60.5452 179.672 59.7502 179.672 58.8479ZM181.573 57.7415V58.8479C181.573 59.4853 181.638 60.0439 181.767 60.5237C181.896 61.0035 182.078 61.4045 182.315 61.7268C182.551 62.0491 182.827 62.2926 183.142 62.4573C183.457 62.6148 183.801 62.6936 184.173 62.6936C184.603 62.6936 184.979 62.6148 185.301 62.4573C185.63 62.2926 185.903 62.0491 186.117 61.7268C186.332 61.4045 186.493 61.0035 186.601 60.5237C186.708 60.0439 186.762 59.4853 186.762 58.8479V57.7415C186.762 57.1041 186.698 56.5491 186.569 56.0764C186.44 55.5966 186.257 55.1956 186.021 54.8733C185.784 54.5439 185.505 54.3004 185.183 54.1428C184.868 53.9781 184.524 53.8958 184.152 53.8958C183.786 53.8958 183.446 53.9781 183.131 54.1428C182.816 54.3004 182.54 54.5439 182.304 54.8733C182.075 55.1956 181.896 55.5966 181.767 56.0764C181.638 56.5491 181.573 57.1041 181.573 57.7415ZM192.354 54.304V64.1008H190.453V52.4778H192.289L192.354 54.304ZM195.244 52.4133L195.254 54.261C195.097 54.2252 194.954 54.2037 194.825 54.1965C194.703 54.1822 194.56 54.175 194.395 54.175C194.037 54.175 193.722 54.2467 193.45 54.3899C193.185 54.5331 192.955 54.7336 192.762 54.9915C192.569 55.2493 192.415 55.5572 192.3 55.9153C192.186 56.2662 192.107 56.6529 192.064 57.0754L191.57 57.3977C191.57 56.6959 191.623 56.037 191.731 55.4211C191.845 54.8053 192.021 54.261 192.257 53.7883C192.494 53.3085 192.794 52.9361 193.16 52.6711C193.532 52.399 193.976 52.2629 194.492 52.2629C194.606 52.2629 194.746 52.2808 194.911 52.3167C195.082 52.3453 195.193 52.3775 195.244 52.4133ZM201.276 52.4778V54.0032H195.851V52.4778H201.276ZM197.624 49.6526H199.525V61.2219C199.525 61.6158 199.572 61.913 199.665 62.1135C199.765 62.314 199.89 62.4465 200.041 62.511C200.191 62.5754 200.352 62.6077 200.524 62.6077C200.653 62.6077 200.796 62.5933 200.954 62.5647C201.111 62.5289 201.219 62.5002 201.276 62.4788L201.265 64.1008C201.136 64.151 200.964 64.1975 200.75 64.2405C200.535 64.2906 200.263 64.3157 199.933 64.3157C199.525 64.3157 199.145 64.219 198.794 64.0256C198.444 63.8323 198.161 63.51 197.946 63.0588C197.731 62.6005 197.624 61.9846 197.624 61.2112V49.6526ZM205.622 64.1008H203.72V51.2532C203.72 50.4153 203.853 49.7099 204.118 49.137C204.39 48.5569 204.773 48.12 205.267 47.8264C205.769 47.5256 206.363 47.3752 207.051 47.3752C207.244 47.3752 207.437 47.3896 207.631 47.4182C207.831 47.4469 208.021 47.4898 208.2 47.5471L208.114 49.1692C207.999 49.1334 207.86 49.1083 207.695 49.094C207.537 49.0797 207.387 49.0725 207.244 49.0725C206.9 49.0725 206.606 49.1584 206.363 49.3303C206.12 49.495 205.933 49.7385 205.804 50.0608C205.683 50.3831 205.622 50.7805 205.622 51.2532V64.1008ZM207.598 52.4778V54.0032H202.206V52.4778H207.598ZM208.786 58.8479V57.7415C208.786 56.8391 208.901 56.0478 209.13 55.3674C209.359 54.6799 209.678 54.107 210.086 53.6487C210.494 53.1903 210.97 52.8466 211.515 52.6174C212.059 52.3811 212.642 52.2629 213.266 52.2629C213.903 52.2629 214.494 52.3811 215.038 52.6174C215.582 52.8466 216.058 53.1903 216.467 53.6487C216.882 54.107 217.204 54.6799 217.433 55.3674C217.663 56.0478 217.777 56.8391 217.777 57.7415V58.8479C217.777 59.7502 217.663 60.5452 217.433 61.2327C217.204 61.913 216.886 62.4823 216.477 62.9407C216.069 63.399 215.593 63.7428 215.049 63.9719C214.504 64.2011 213.917 64.3157 213.287 64.3157C212.657 64.3157 212.07 64.2011 211.525 63.9719C210.981 63.7428 210.501 63.399 210.086 62.9407C209.678 62.4823 209.359 61.913 209.13 61.2327C208.901 60.5452 208.786 59.7502 208.786 58.8479ZM210.687 57.7415V58.8479C210.687 59.4853 210.752 60.0439 210.881 60.5237C211.01 61.0035 211.192 61.4045 211.429 61.7268C211.665 62.0491 211.941 62.2926 212.256 62.4573C212.571 62.6148 212.915 62.6936 213.287 62.6936C213.717 62.6936 214.093 62.6148 214.415 62.4573C214.744 62.2926 215.016 62.0491 215.231 61.7268C215.446 61.4045 215.607 61.0035 215.715 60.5237C215.822 60.0439 215.876 59.4853 215.876 58.8479V57.7415C215.876 57.1041 215.811 56.5491 215.682 56.0764C215.554 55.5966 215.371 55.1956 215.135 54.8733C214.898 54.5439 214.619 54.3004 214.297 54.1428C213.982 53.9781 213.638 53.8958 213.266 53.8958C212.9 53.8958 212.56 53.9781 212.245 54.1428C211.93 54.3004 211.654 54.5439 211.418 54.8733C211.189 55.1956 211.01 55.5966 210.881 56.0764C210.752 56.5491 210.687 57.1041 210.687 57.7415ZM221.607 47.6008V64.1008H219.717V47.6008H221.607ZM225.996 52.4778V64.1008H224.106V52.4778H225.996ZM223.998 49.3948C223.998 49.0725 224.088 48.8004 224.267 48.5784C224.446 48.3564 224.714 48.2454 225.072 48.2454C225.431 48.2454 225.699 48.3564 225.878 48.5784C226.064 48.8004 226.157 49.0725 226.157 49.3948C226.157 49.7027 226.064 49.9677 225.878 50.1897C225.699 50.4045 225.431 50.512 225.072 50.512C224.714 50.512 224.446 50.4045 224.267 50.1897C224.088 49.9677 223.998 49.7027 223.998 49.3948ZM227.947 58.8479V57.7415C227.947 56.8391 228.061 56.0478 228.29 55.3674C228.52 54.6799 228.838 54.107 229.246 53.6487C229.655 53.1903 230.131 52.8466 230.675 52.6174C231.219 52.3811 231.803 52.2629 232.426 52.2629C233.064 52.2629 233.654 52.3811 234.199 52.6174C234.743 52.8466 235.219 53.1903 235.627 53.6487C236.043 54.107 236.365 54.6799 236.594 55.3674C236.823 56.0478 236.938 56.8391 236.938 57.7415V58.8479C236.938 59.7502 236.823 60.5452 236.594 61.2327C236.365 61.913 236.046 62.4823 235.638 62.9407C235.23 63.399 234.754 63.7428 234.209 63.9719C233.665 64.2011 233.078 64.3157 232.448 64.3157C231.817 64.3157 231.23 64.2011 230.686 63.9719C230.142 63.7428 229.662 63.399 229.246 62.9407C228.838 62.4823 228.52 61.913 228.29 61.2327C228.061 60.5452 227.947 59.7502 227.947 58.8479ZM229.848 57.7415V58.8479C229.848 59.4853 229.912 60.0439 230.041 60.5237C230.17 61.0035 230.353 61.4045 230.589 61.7268C230.826 62.0491 231.101 62.2926 231.416 62.4573C231.731 62.6148 232.075 62.6936 232.448 62.6936C232.877 62.6936 233.253 62.6148 233.576 62.4573C233.905 62.2926 234.177 62.0491 234.392 61.7268C234.607 61.4045 234.768 61.0035 234.875 60.5237C234.983 60.0439 235.036 59.4853 235.036 58.8479V57.7415C235.036 57.1041 234.972 56.5491 234.843 56.0764C234.714 55.5966 234.532 55.1956 234.295 54.8733C234.059 54.5439 233.78 54.3004 233.457 54.1428C233.142 53.9781 232.799 53.8958 232.426 53.8958C232.061 53.8958 231.721 53.9781 231.406 54.1428C231.091 54.3004 230.815 54.5439 230.578 54.8733C230.349 55.1956 230.17 55.5966 230.041 56.0764C229.912 56.5491 229.848 57.1041 229.848 57.7415Z" fill="#123435"/>
</svg>
